<?xml version="1.0" encoding="UTF-8"?>
<!-- Generator: visioncortex VTracer 0.6.12 -->
<svg version="1.1" xmlns="http://www.w3.org/2000/svg" width="769" height="769" viewBox="61 80 613 613">
<path d="M0 0 C8.735 7.346 17.141 15.04 25.145 23.176 C27.014 25.014 28.949 26.73 30.938 28.438 C33.928 31.007 36.731 33.693 39.5 36.5 C42.208 39.245 44.942 41.873 47.875 44.375 C51.246 47.262 54.385 50.342 57.5 53.5 C60.512 56.553 63.535 59.541 66.812 62.312 C71.376 66.199 75.536 70.483 79.726 74.763 C82.546 77.625 85.396 80.372 88.463 82.969 C94.286 88.041 99.697 93.533 105.156 98.988 C106.311 100.139 107.465 101.29 108.62 102.441 C111.022 104.838 113.422 107.236 115.82 109.635 C118.9 112.715 121.986 115.787 125.075 118.859 C127.453 121.225 129.826 123.597 132.198 125.969 C133.335 127.105 134.474 128.24 135.614 129.372 C137.199 130.947 138.777 132.528 140.354 134.111 C141.253 135.009 142.153 135.907 143.08 136.832 C145 139 145 139 145 141 C145.66 141 146.32 141 147 141 C146.521 147.304 143.616 152.454 140.812 158 C140.28 159.056 139.748 160.112 139.199 161.199 C127.935 183.102 113.823 203.044 97 221 C95.785 222.39 94.576 223.786 93.375 225.188 C78.493 242.265 59.928 256.686 41 269 C40.363 269.417 39.725 269.834 39.069 270.264 C34.438 273.276 29.744 276.169 25 279 C24.28 279.433 23.559 279.866 22.817 280.312 C-39.351 317.243 -115.758 325.882 -186 312 C-186.858 311.832 -187.716 311.663 -188.6 311.49 C-213.813 306.381 -238 297.398 -261 286 C-261.377 285.818 -261.377 285.818 -263.287 284.897 C-285.274 274.269 -305.799 259.592 -323.742 243.07 C-326.57 240.478 -329.481 237.989 -332.406 235.508 C-334 234 -334 234 -336 231 C-329.201 222.078 -322.38 213.172 -315.5 204.312 C-314.926 203.571 -314.351 202.83 -313.759 202.067 C-310.579 197.979 -307.341 193.958 -304 190 C-300.185 192.803 -296.418 195.64 -292.762 198.648 C-278.495 210.358 -263.305 220.358 -247 229 C-246.364 229.34 -245.728 229.68 -245.073 230.03 C-209.209 249.054 -169.504 258.839 -129 260 C-127.75 260.041 -126.499 260.082 -125.211 260.125 C-56.589 261.262 11.975 235.266 61.883 188.086 C71.685 178.571 83.732 164.933 84.5 150.562 C83.713 136.164 73.94 126.334 64 117 C62.07 115.296 60.119 113.62 58.164 111.945 C55.51 109.56 53.005 107.039 50.5 104.5 C46.169 100.116 41.692 95.993 37 92 C35.328 90.569 33.661 89.131 32 87.688 C31.237 87.031 30.474 86.375 29.688 85.699 C28 84 28 84 28 82 C27.469 81.798 26.938 81.595 26.391 81.387 C22.958 79.395 20.491 76.655 17.75 73.812 C13.641 69.622 9.502 65.603 5.023 61.805 C1.904 59.022 -0.997 56.023 -3.932 53.049 C-7.144 49.81 -10.472 46.793 -13.941 43.836 C-18.146 40.086 -22.054 36.019 -26 32 C-24.311 27.912 -21.445 24.844 -18.562 21.562 C-17.484 20.321 -16.406 19.078 -15.328 17.836 C-14.778 17.204 -14.229 16.572 -13.662 15.921 C-11.019 12.866 -8.415 9.777 -5.812 6.688 C-1.129 1.129 -1.129 1.129 0 0 Z " fill="#1F9C80" transform="translate(509,362)"/>
<path d="M0 0 C0.733 -0.001 1.466 -0.001 2.221 -0.002 C34.668 0.045 66.292 4.92 97.062 15.25 C97.454 15.377 97.454 15.377 99.435 16.021 C121.738 23.318 143.545 34.275 163.062 47.25 C163.761 47.71 164.46 48.17 165.181 48.644 C173.097 53.878 180.68 59.336 187.926 65.473 C190.062 67.25 190.062 67.25 193.062 69.25 C191.525 73.492 188.365 75.593 184.875 78.188 C176.976 84.211 169.514 90.686 162.062 97.25 C158.032 94.994 154.175 92.721 150.438 90 C117.692 66.897 79.668 52.124 40.062 46.25 C39.297 46.134 38.532 46.019 37.744 45.899 C13.865 42.474 -11.226 43.043 -34.938 47.25 C-35.868 47.406 -36.799 47.561 -37.758 47.722 C-96.466 57.728 -155.648 90.321 -192.652 137.614 C-193.562 138.773 -194.48 139.925 -195.402 141.073 C-208.06 156.833 -218.502 173.879 -226.938 192.25 C-227.102 192.607 -227.102 192.607 -227.936 194.414 C-240.054 221.026 -247.988 250.617 -248.141 279.98 C-248.148 280.885 -248.155 281.79 -248.162 282.722 C-248.389 320.394 -248.389 320.394 -244.938 336.25 C-244.718 337.271 -244.498 338.291 -244.271 339.343 C-241.857 350.305 -239.274 361.211 -235.504 371.797 C-234.82 374.759 -234.943 376.376 -235.938 379.25 C-237.758 381.645 -237.758 381.645 -240.062 384.062 C-240.884 384.94 -241.705 385.818 -242.551 386.723 C-243.338 387.557 -244.126 388.391 -244.938 389.25 C-246.05 390.493 -247.155 391.742 -248.25 393 C-248.525 393.316 -248.525 393.316 -249.918 394.914 C-252.639 398.062 -255.353 401.217 -258.062 404.375 C-258.566 404.961 -259.069 405.547 -259.587 406.151 C-262.735 409.826 -265.848 413.527 -268.938 417.25 C-272.628 413.881 -274.186 409.88 -276.188 405.375 C-276.583 404.485 -276.979 403.595 -277.386 402.678 C-306.508 335.767 -306.167 255.941 -279.573 188.352 C-275.522 178.403 -271.005 168.719 -265.938 159.25 C-265.544 158.513 -265.151 157.775 -264.746 157.016 C-250.644 130.741 -232.841 108.027 -211.875 86.938 C-211.368 86.425 -210.861 85.913 -210.339 85.385 C-203.545 78.537 -196.529 72.223 -188.938 66.25 C-188.347 65.774 -187.756 65.299 -187.148 64.809 C-172.473 53 -156.635 42.932 -139.938 34.25 C-139.048 33.781 -138.159 33.312 -137.242 32.829 C-95.26 10.905 -47.255 0.04 0 0 Z " fill="#1F9C80" transform="translate(379.9375,93.75)"/>
<path d="M0 0 C3.206 1.525 5.333 3.108 7.82 5.66 C8.52 6.371 9.22 7.082 9.941 7.814 C10.662 8.556 11.383 9.298 12.125 10.062 C13.563 11.535 15.003 13.005 16.445 14.473 C17.08 15.125 17.714 15.777 18.368 16.449 C20 18 20 18 22 19 C22 19.66 22 20.32 22 21 C22.598 21.273 23.197 21.545 23.813 21.826 C25.944 22.97 27.303 24.066 28.989 25.778 C29.544 26.336 30.098 26.894 30.669 27.469 C31.258 28.071 31.847 28.673 32.453 29.293 C32.763 29.605 32.763 29.605 34.329 31.185 C36.308 33.181 38.279 35.184 40.25 37.188 C42.835 39.809 45.423 42.428 48.016 45.043 C48.64 45.673 49.264 46.303 49.907 46.951 C53.499 50.555 57.165 53.987 61.05 57.275 C66.089 61.733 70.714 66.667 75.437 71.457 C84.581 80.72 84.581 80.72 88.906 84.406 C95.358 89.925 101.193 96.139 107.155 102.175 C112.628 107.71 118.085 113.182 124.016 118.234 C129.247 122.89 134.039 128.048 138.93 133.057 C139.356 133.489 139.356 133.489 141.516 135.676 C142.282 136.459 143.048 137.242 143.837 138.048 C145.837 139.853 147.536 140.955 150 142 C150.641 141.408 151.281 140.817 151.941 140.207 C156.776 135.79 161.568 131.661 167 128 C169 129 169 129 169.969 131.289 C170.305 132.302 170.641 133.315 170.987 134.358 C171.371 135.503 171.754 136.648 172.149 137.828 C172.558 139.076 172.966 140.324 173.387 141.609 C173.812 142.896 174.237 144.183 174.663 145.47 C175.555 148.172 176.441 150.876 177.323 153.581 C178.454 157.043 179.601 160.5 180.754 163.954 C181.638 166.613 182.511 169.275 183.381 171.938 C184.003 173.833 184.635 175.725 185.268 177.616 C185.642 178.774 186.016 179.931 186.401 181.124 C186.735 182.14 187.069 183.157 187.412 184.204 C188.051 187.245 187.936 189.054 187 192 C184.959 194.495 184.959 194.495 182.309 197.082 C181.844 197.541 181.379 198 180.9 198.473 C179.422 199.929 177.93 201.371 176.438 202.812 C175.429 203.801 174.422 204.789 173.416 205.779 C170.954 208.197 168.481 210.602 166 213 C163.082 211.685 161.051 210.284 158.828 207.988 C158.245 207.395 157.663 206.801 157.062 206.189 C156.464 205.57 155.866 204.951 155.25 204.312 C151.706 200.663 148.165 197.092 144.292 193.79 C139.871 189.944 135.743 185.853 131.625 181.688 C131.241 181.301 131.241 181.301 129.295 179.346 C126.041 176.076 122.793 172.8 119.545 169.524 C117.157 167.118 114.766 164.715 112.375 162.312 C111.654 161.583 110.933 160.854 110.19 160.102 C106.939 156.836 103.664 153.663 100.164 150.664 C95.381 146.539 90.954 142.067 86.509 137.584 C84.963 136.025 83.414 134.469 81.863 132.914 C78.017 129.054 74.175 125.189 70.334 121.324 C67.076 118.046 63.815 114.77 60.552 111.496 C59.039 109.977 57.529 108.454 56.02 106.932 C51.371 102.259 46.677 97.699 41.653 93.427 C39.14 91.258 36.831 88.926 34.5 86.562 C33.644 85.698 32.788 84.833 31.906 83.941 C31.277 83.301 30.648 82.66 30 82 C29.268 85.356 28.822 88.583 28.634 92.011 C28.578 92.996 28.522 93.981 28.465 94.996 C28.408 96.066 28.35 97.136 28.292 98.238 C28.228 99.373 28.164 100.509 28.099 101.679 C27.961 104.145 27.825 106.612 27.69 109.078 C27.475 112.994 27.254 116.909 27.032 120.825 C26.4 131.958 25.774 143.091 25.162 154.225 C24.788 161.04 24.402 167.854 24.011 174.667 C23.864 177.252 23.722 179.837 23.583 182.423 C21.561 220.038 21.561 220.038 15 230 C14.572 230.654 14.143 231.308 13.702 231.982 C12.276 234.08 10.804 236.136 9.312 238.188 C8.233 239.695 7.153 241.203 6.074 242.711 C5.547 243.444 5.021 244.177 4.478 244.933 C2.496 247.705 0.558 250.505 -1.375 253.312 C-5.082 258.683 -8.818 264.032 -12.562 269.375 C-23.812 285.434 -35.017 301.521 -46.07 317.715 C-50.018 323.496 -54.005 329.251 -58 335 C-61.087 333.652 -62.908 332.252 -65.031 329.648 C-65.589 328.969 -66.147 328.29 -66.722 327.59 C-67.309 326.859 -67.895 326.128 -68.5 325.375 C-69.11 324.625 -69.72 323.874 -70.349 323.101 C-77.176 314.646 -83.969 306.046 -90 297 C-89.31 296.189 -88.621 295.378 -87.91 294.543 C-83.417 289.251 -78.939 283.952 -74.562 278.562 C-71.089 274.293 -67.532 270.105 -63.938 265.938 C-59.868 261.217 -55.909 256.435 -52.047 251.543 C-49.649 248.564 -47.172 245.657 -44.688 242.75 C-40.426 237.752 -36.32 232.653 -32.288 227.469 C-27.996 221.959 -23.587 216.548 -19.151 211.153 C-18.624 210.51 -18.097 209.866 -17.555 209.203 C-17.085 208.632 -16.616 208.062 -16.132 207.474 C-13.603 204.182 -13.709 201.262 -13.438 197.177 C-13.413 196.822 -13.413 196.822 -13.291 195.025 C-13.129 192.632 -12.973 190.239 -12.817 187.846 C-12.702 186.134 -12.587 184.422 -12.471 182.71 C-12.157 178.044 -11.849 173.377 -11.541 168.71 C-11.217 163.808 -10.888 158.906 -10.559 154.004 C-9.935 144.686 -9.315 135.367 -8.696 126.048 C-7.595 109.449 -6.486 92.851 -5.376 76.253 C-4.988 70.444 -4.601 64.635 -4.216 58.825 C-2.914 39.208 -1.579 19.597 0 0 Z " fill="#1F9C80" transform="translate(213,241)"/>
<path d="M0 0 C0.33 0.66 0.66 1.32 1 2 C-3.305 7.731 -7.857 13.119 -12.691 18.41 C-14.985 20.983 -17.155 23.624 -19.312 26.312 C-23.725 31.769 -28.445 36.886 -33.227 42.016 C-37.52 46.621 -41.623 51.381 -45.703 56.176 C-51.528 63.013 -57.445 69.733 -63.543 76.328 C-66.165 79.18 -68.72 82.081 -71.258 85.008 C-73.315 87.36 -75.406 89.68 -77.5 92 C-80.17 94.959 -82.823 97.929 -85.438 100.938 C-89.092 105.134 -92.847 109.237 -96.598 113.348 C-98.569 115.525 -100.514 117.718 -102.438 119.938 C-105.868 123.887 -109.41 127.73 -112.953 131.578 C-115.505 134.355 -118.03 137.15 -120.5 140 C-123.863 143.878 -127.333 147.655 -130.808 151.433 C-134.503 155.452 -138.166 159.499 -141.812 163.562 C-144.079 166.088 -146.352 168.606 -148.625 171.125 C-151.214 173.999 -153.781 176.888 -156.312 179.812 C-159.939 183.977 -163.693 188.019 -167.445 192.07 C-173.801 198.936 -180.048 205.892 -186.195 212.945 C-190.52 217.87 -194.936 222.714 -199.328 227.578 C-203.93 232.681 -208.494 237.813 -213 243 C-216.358 240.761 -216.567 240.145 -217.73 236.469 C-218.034 235.526 -218.338 234.583 -218.651 233.612 C-218.97 232.585 -219.289 231.558 -219.617 230.5 C-219.956 229.436 -220.295 228.371 -220.645 227.275 C-221.364 225.01 -222.078 222.744 -222.788 220.476 C-223.854 217.066 -224.935 213.662 -226.02 210.258 C-229.936 197.905 -233.654 185.52 -237 173 C-227.596 165.665 -218.016 158.62 -208.326 151.669 C-204.568 148.972 -200.814 146.269 -197.062 143.562 C-196.323 143.029 -195.583 142.496 -194.822 141.946 C-188.552 137.416 -182.326 132.828 -176.106 128.231 C-170.762 124.286 -165.391 120.381 -160 116.5 C-147.153 107.247 -134.423 97.84 -121.77 88.323 C-116.202 84.14 -110.591 80.017 -104.969 75.906 C-101.337 73.25 -97.718 70.579 -94.099 67.906 C-86.359 62.19 -78.588 56.522 -70.779 50.902 C-65.241 46.91 -59.74 42.87 -54.25 38.812 C-48.321 34.431 -42.367 30.094 -36.351 25.832 C-31.308 22.248 -26.344 18.561 -21.375 14.875 C-14.384 9.694 -7.322 4.706 0 0 Z " fill="#7BEE90" transform="translate(628,190)"/>
<path d="M0 0 C0.33 0.66 0.66 1.32 1 2 C-3.305 7.731 -7.857 13.119 -12.691 18.41 C-14.985 20.983 -17.155 23.624 -19.312 26.312 C-23.725 31.769 -28.445 36.886 -33.227 42.016 C-37.52 46.621 -41.623 51.381 -45.703 56.176 C-51.528 63.013 -57.445 69.733 -63.543 76.328 C-66.165 79.18 -68.72 82.081 -71.258 85.008 C-73.315 87.36 -75.406 89.68 -77.5 92 C-80.17 94.959 -82.823 97.929 -85.438 100.938 C-89.092 105.134 -92.847 109.237 -96.598 113.348 C-98.569 115.525 -100.514 117.718 -102.438 119.938 C-105.868 123.887 -109.41 127.73 -112.953 131.578 C-115.505 134.355 -118.03 137.15 -120.5 140 C-123.863 143.878 -127.333 147.655 -130.808 151.433 C-134.503 155.452 -138.166 159.499 -141.812 163.562 C-144.079 166.088 -146.352 168.606 -148.625 171.125 C-151.214 173.999 -153.781 176.888 -156.312 179.812 C-159.939 183.977 -163.693 188.019 -167.445 192.07 C-173.801 198.936 -180.048 205.892 -186.195 212.945 C-190.52 217.87 -194.936 222.714 -199.328 227.578 C-203.93 232.681 -208.494 237.813 -213 243 C-216.358 240.761 -216.567 240.145 -217.73 236.469 C-218.034 235.526 -218.338 234.583 -218.651 233.612 C-218.97 232.585 -219.289 231.558 -219.617 230.5 C-219.956 229.436 -220.295 228.371 -220.645 227.275 C-221.364 225.01 -222.078 222.744 -222.788 220.476 C-223.854 217.066 -224.935 213.662 -226.02 210.258 C-229.936 197.905 -233.654 185.52 -237 173 C-235.68 173 -234.36 173 -233 173 C-226.257 190.779 -220.555 208.824 -215 227 C-214.619 226.619 -214.619 226.619 -212.693 224.691 C-210.772 222.771 -208.847 220.856 -206.914 218.949 C-205.818 217.862 -204.721 216.775 -203.625 215.688 C-203.086 215.157 -202.547 214.627 -201.992 214.08 C-198.43 210.539 -195.093 206.859 -191.808 203.06 C-188.715 199.536 -185.477 196.15 -182.25 192.75 C-177.611 187.843 -172.989 182.926 -168.438 177.938 C-162.361 171.281 -156.192 164.712 -150.018 158.147 C-147.931 155.927 -145.848 153.704 -143.766 151.48 C-142.365 149.987 -140.964 148.493 -139.562 147 C-139.244 146.659 -139.244 146.659 -137.63 144.935 C-134.463 141.563 -131.257 138.249 -127.965 135 C-125.362 132.418 -122.891 129.779 -120.5 127 C-116.25 122.065 -111.607 117.557 -106.961 113 C-102.979 109.064 -99.212 105.023 -95.559 100.781 C-93.635 98.583 -91.596 96.533 -89.5 94.5 C-86.05 91.096 -82.834 87.576 -79.68 83.898 C-77.502 81.437 -75.171 79.158 -72.826 76.859 C-71.137 75.14 -69.584 73.372 -68.031 71.531 C-62.498 65.167 -56.395 59.339 -50.397 53.418 C-44.971 48.054 -39.619 42.695 -34.663 36.886 C-31.495 33.294 -28.042 29.979 -24.625 26.625 C-23.198 25.224 -21.774 23.82 -20.352 22.414 C-19.731 21.805 -19.111 21.196 -18.471 20.569 C-17 19 -17 19 -16 17 C-15.34 17 -14.68 17 -14 17 C-13.773 16.444 -13.546 15.889 -13.312 15.316 C-11.623 12.335 -9.465 10.313 -7 7.938 C-4.318 5.345 -2.072 3.108 0 0 Z " fill="#1F9C80" transform="translate(628,190)"/>
</svg>
